<svg width="14" height="16" viewBox="0 0 14 16" fill="none" xmlns="http://www.w3.org/2000/svg">
<g clip-path="url(#clip0_9_523)">
<path d="M7.00315 4.40623C5.01565 4.40623 3.41252 6.00935 3.41252 7.99685C3.41252 9.98435 5.01565 11.5875 7.00315 11.5875C8.99065 11.5875 10.5938 9.98435 10.5938 7.99685C10.5938 6.00935 8.99065 4.40623 7.00315 4.40623ZM7.00315 10.3312C5.71877 10.3312 4.66877 9.28435 4.66877 7.99685C4.66877 6.70935 5.71565 5.66248 7.00315 5.66248C8.29065 5.66248 9.33752 6.70935 9.33752 7.99685C9.33752 9.28435 8.28752 10.3312 7.00315 10.3312ZM11.5781 4.25935C11.5781 4.72498 11.2031 5.09685 10.7407 5.09685C10.275 5.09685 9.90315 4.72185 9.90315 4.25935C9.90315 3.79685 10.2782 3.42185 10.7407 3.42185C11.2031 3.42185 11.5781 3.79685 11.5781 4.25935ZM13.9563 5.10935C13.9031 3.98748 13.6469 2.99373 12.825 2.17498C12.0063 1.35623 11.0125 1.09998 9.89065 1.04373C8.7344 0.978101 5.26877 0.978101 4.11252 1.04373C2.99377 1.09685 2.00002 1.3531 1.17815 2.17185C0.356274 2.9906 0.103149 3.98435 0.0468994 5.10623C-0.0187256 6.26248 -0.0187256 9.7281 0.0468994 10.8843C0.100024 12.0062 0.356274 13 1.17815 13.8187C2.00002 14.6375 2.99065 14.8937 4.11252 14.95C5.26877 15.0156 8.7344 15.0156 9.89065 14.95C11.0125 14.8968 12.0063 14.6406 12.825 13.8187C13.6438 13 13.9 12.0062 13.9563 10.8843C14.0219 9.7281 14.0219 6.2656 13.9563 5.10935ZM12.4625 12.125C12.2188 12.7375 11.7469 13.2094 11.1313 13.4562C10.2094 13.8219 8.0219 13.7375 7.00315 13.7375C5.9844 13.7375 3.79377 13.8187 2.87502 13.4562C2.26252 13.2125 1.79065 12.7406 1.54377 12.125C1.17815 11.2031 1.26252 9.0156 1.26252 7.99685C1.26252 6.9781 1.18127 4.78748 1.54377 3.86873C1.78752 3.25623 2.2594 2.78435 2.87502 2.53748C3.7969 2.17185 5.9844 2.25623 7.00315 2.25623C8.0219 2.25623 10.2125 2.17498 11.1313 2.53748C11.7438 2.78123 12.2156 3.2531 12.4625 3.86873C12.8281 4.7906 12.7438 6.9781 12.7438 7.99685C12.7438 9.0156 12.8281 11.2062 12.4625 12.125Z" fill="#D1D5DB"/>
</g>
<defs>
<clipPath id="clip0_9_523">
<path d="M0 0H14V16H0V0Z" fill="white"/>
</clipPath>
</defs>
</svg>
