<svg width="17" height="16" viewBox="0 0 17 16" fill="none" xmlns="http://www.w3.org/2000/svg">
<path d="M15.6906 0.678122C15.0063 -0.00625306 13.9 -0.00625306 13.2156 0.678122L12.275 1.61562L15.3344 4.675L16.275 3.73437C16.9594 3.05 16.9594 1.94375 16.275 1.25937L15.6906 0.678122ZM6.34062 7.55312C6.15 7.74375 6.00312 7.97812 5.91875 8.2375L4.99375 11.0125C4.90313 11.2812 4.975 11.5781 5.175 11.7812C5.375 11.9844 5.67187 12.0531 5.94375 11.9625L8.71875 11.0375C8.975 10.9531 9.20937 10.8062 9.40312 10.6156L14.6313 5.38437L11.5688 2.32187L6.34062 7.55312ZM3.95312 2C2.29688 2 0.953125 3.34375 0.953125 5V13C0.953125 14.6562 2.29688 16 3.95312 16H11.9531C13.6094 16 14.9531 14.6562 14.9531 13V10C14.9531 9.44687 14.5063 9 13.9531 9C13.4 9 12.9531 9.44687 12.9531 10V13C12.9531 13.5531 12.5063 14 11.9531 14H3.95312C3.4 14 2.95312 13.5531 2.95312 13V5C2.95312 4.44687 3.4 4 3.95312 4H6.95312C7.50625 4 7.95312 3.55312 7.95312 3C7.95312 2.44687 7.50625 2 6.95312 2H3.95312Z" fill="white"/>
</svg>
