<svg xmlns="http://www.w3.org/2000/svg" xmlns:xlink="http://www.w3.org/1999/xlink" viewBox="0,0,256,256" width="50px" height="50px" fill-rule="nonzero"><g fill="#2563eb" fill-rule="nonzero" stroke="none" stroke-width="1" stroke-linecap="butt" stroke-linejoin="miter" stroke-miterlimit="10" stroke-dasharray="" stroke-dashoffset="0" font-family="none" font-weight="none" font-size="none" text-anchor="none" style="mix-blend-mode: normal"><g transform="scale(4,4)"><path d="M41.148,14h-18.296c-0.47,0 -0.852,0.382 -0.852,0.852v32.36c0,0.297 0.357,0.448 0.57,0.241l8.557,-8.303c0.487,-0.472 1.26,-0.472 1.747,0l8.557,8.303c0.212,0.207 0.569,0.056 0.569,-0.24v-32.36c0,-0.471 -0.382,-0.853 -0.852,-0.853zM41.148,10c2.679,0 4.852,2.173 4.852,4.852v37.46c0,1.925 -2.314,2.903 -3.695,1.563l-10.305,-9.998l-10.305,9.999c-1.381,1.34 -3.695,0.361 -3.695,-1.563v-37.46c0,-2.68 2.173,-4.853 4.852,-4.853z"></path></g></g></svg>