<svg width="20" height="16" viewBox="0 0 20 16" fill="none" xmlns="http://www.w3.org/2000/svg">
<path d="M2.7562 9.65938C3.06245 9.0875 2.9687 8.38437 2.52183 7.91563C1.8562 7.21563 1.49995 6.375 1.49995 5.5C1.49995 3.51562 3.4937 1.5 6.49995 1.5C9.5062 1.5 11.5 3.51562 11.5 5.5C11.5 7.48438 9.5062 9.5 6.49995 9.5C6.09058 9.5 5.6937 9.45937 5.3187 9.3875C4.9937 9.325 4.6562 9.36875 4.35933 9.51875C4.2312 9.58438 4.09995 9.64688 3.96558 9.70625C3.46558 9.93125 2.93745 10.1281 2.4062 10.2688C2.4937 10.125 2.57495 9.98438 2.65308 9.84375C2.68745 9.78438 2.72183 9.72188 2.75308 9.65938H2.7562ZM-4.52976e-05 5.5C-4.52976e-05 6.80625 0.537455 8.00312 1.43433 8.94687C1.4062 9 1.37495 9.05625 1.34683 9.10625C1.02495 9.68125 0.649955 10.2469 0.20308 10.7344C-0.0031703 10.9531 -0.0562953 11.2719 0.0593297 11.5437C0.181205 11.8219 0.449955 12 0.749955 12C2.0937 12 3.45308 11.5844 4.58433 11.0719C4.73433 11.0031 4.88433 10.9312 5.02808 10.8594C5.49995 10.9531 5.9937 11 6.49995 11C10.0906 11 13 8.5375 13 5.5C13 2.4625 10.0906 0 6.49995 0C2.90933 0 -4.52976e-05 2.4625 -4.52976e-05 5.5ZM13.5 15C14.0062 15 14.4968 14.95 14.9718 14.8594C15.1156 14.9312 15.2656 15.0031 15.4156 15.0719C16.5468 15.5844 17.9062 16 19.25 16C19.55 16 19.8187 15.8219 19.9375 15.5469C20.0562 15.2719 20 14.9531 19.7937 14.7375C19.35 14.25 18.975 13.6844 18.65 13.1094C18.6218 13.0562 18.5906 13.0031 18.5625 12.95C19.4625 12.0031 20 10.8062 20 9.5C20 6.55 17.2531 4.14062 13.8062 4.00625C13.9343 4.48125 14 4.98125 14 5.5V5.51875C16.725 5.72813 18.5 7.62813 18.5 9.5C18.5 10.375 18.1437 11.2156 17.4781 11.9125C17.0312 12.3813 16.9375 13.0875 17.2437 13.6562C17.2781 13.7188 17.3125 13.7812 17.3437 13.8406C17.4218 13.9812 17.5062 14.1219 17.5906 14.2656C17.0593 14.125 16.5312 13.9312 16.0312 13.7031C15.8968 13.6438 15.7656 13.5813 15.6375 13.5156C15.3406 13.3656 15.0031 13.3219 14.6781 13.3844C14.3 13.4594 13.9062 13.4969 13.4968 13.4969C11.5687 13.4969 10.0593 12.6687 9.22183 11.55C8.72183 11.7188 8.19683 11.8438 7.65933 11.9187C8.71871 13.7437 10.9375 15 13.5 15Z" fill="#4B5563"/>
</svg>
